# xmcd
#
# Track frame offsets: 
#        150
#        15527
#        24999
#        37149
#        46380
#        67713
#        77709
#        78019
#        78321
#        78625
#        78927
#        79233
#        90454
#        99367
#        110178
#        123876
#        132641
#        140590
#        156643
#        168504
#        182352
#        193802
#        212899
#        225108
#        237845
#
# Disc length: 3323 seconds
#
# Revision: 2
# Processed by: cddbd v1.5.2PL0 Copyright (c) Steve Scherf et al.
# Submitted via: ExactAudioCopyFreeDBPlugin 1.0
#
DISCID=3a0cf919
DTITLE=Various Artist - The Bakersfield Sound: Country Music Capitol 
DTITLE=Of The West 1940-1974
DYEAR=2019
DGENRE=Country
TTITLE0=Buck Owens and His Buckaroos - Y'All Come - Tall Dark Stranger (
TTITLE0=Live)
TTITLE1=Tony Booth and The Buckaroos - Lonesome 7-7203 (Live)
TTITLE2=Buddy Alan and The Buckaroos - Fishin' On The Mississippi (Live)
TTITLE3=Susan Raye and The Buckaroos - L.A. International Airport (Live)
TTITLE4=Buck Owens and His Buckaroos - Johnny B. Goode (Live)
TTITLE5=Bonnie Owens - Number One Heel (Take 14)
TTITLE6=Merle Haggard - If I Had Left It Up To You (take 4, deleted)
TTITLE7=Merle Haggard - If I Had Left It Up To You (false starts, dele
TTITLE7=ted)
TTITLE8=Merle Haggard - If I Had Left It Up To You (false starts, dele
TTITLE8=ted)
TTITLE9=Merle Haggard - I'm Not Looking For An Angel (demo, deleted)
TTITLE10=Merle Haggard - Second Fiddle (demo, deleted)
TTITLE11=Vancie Flowers and Rita Lane - Strange
TTITLE12=Vancie Flowers and Rita Lane - Tears In My Beer
TTITLE13=Billy Mize - Misery
TTITLE14=Billy Mize - The Name Of The Game Is Heartaches
TTITLE15=Red Simpson - I'd Be A Good Time Charlie
TTITLE16=Red Simpson - Fit For A King
TTITLE17=Johnny Barnett - Which One Is To Blame
TTITLE18=Junior Stonebarger with Jelly Sanders Band - Release Me
TTITLE19=Fuzzy Owen with Bill Woods' Band - My Ears Should Burn (When 
TTITLE19=Fools Are Talked About)
TTITLE20=Bill Woods with Don Rich - Truck Drivin' Man
TTITLE21=Tommy Collins - Be Serious Ann
TTITLE22=Joe and Rose Lee Maphis - Christmas Time's A Comin'
TTITLE23=Lewis Talley - Blue Christmas
TTITLE24=Louise Lovett - Lonely Christmas Call
EXTD=
EXTT0=
EXTT1=
EXTT2=
EXTT3=
EXTT4=
EXTT5=
EXTT6=
EXTT7=
EXTT8=
EXTT9=
EXTT10=
EXTT11=
EXTT12=
EXTT13=
EXTT14=
EXTT15=
EXTT16=
EXTT17=
EXTT18=
EXTT19=
EXTT20=
EXTT21=
EXTT22=
EXTT23=
EXTT24=
PLAYORDER=
